Coordinates
version=1
nRows=29
nColumns=24
inDegrees=yes

Units are S.I. units (second, meters, Newtons, ...)
Angles are in degrees.

endheader
time	pelvis_tilt	pelvis_list	pelvis_rotation	pelvis_tx	pelvis_ty	pelvis_tz	hip_flexion_r	hip_adduction_r	hip_rotation_r	knee_angle_r	ankle_angle_r	subtalar_angle_r	mtp_angle_r	hip_flexion_l	hip_adduction_l	hip_rotation_l	knee_angle_l	ankle_angle_l	subtalar_angle_l	mtp_angle_l	lumbar_extension	lumbar_bending	lumbar_rotation
      2.83500000	    -10.99999161	     -2.11925492	      7.88523253	     -1.82355398	     -0.04211060	     -0.29049573	     37.43979486	     -5.40699660	    -17.43489600	     -9.05350815	     -2.99798480	     -0.28793673	     11.94233604	     -4.50307345	     -1.46912124	     -1.14503447	    -15.67190867	     11.04732279	     -3.33308620	     -5.13517533	      4.77254218	      2.82874065	    -10.11592497
      2.84000000	    -10.85965398	     -2.33257054	      8.02159201	     -1.81504356	     -0.04271691	     -0.29003791	     37.24446457	     -5.20059237	    -17.41218267	     -9.48234485	     -3.01984597	     -0.31025147	     12.92186428	     -4.90285016	     -1.94572233	     -1.43560402	    -16.00602603	     10.22013123	     -2.84578780	     -2.89655777	      4.78058509	      3.06531830	    -10.27270582
      2.84500000	    -10.95074626	     -2.39963544	      8.09203006	     -1.80657519	     -0.04363322	     -0.28951278	     37.38861667	     -5.14748328	    -17.23250448	    -10.18405141	     -2.80877096	     -0.09822040	     13.10478840	     -5.02403096	     -2.20767032	     -1.65374054	    -16.50302526	      9.79827835	     -2.25979379	     -2.81129711	      5.00586303	      3.12602096	    -10.31507001
      2.85000000	    -10.98918825	     -2.57995009	      8.15140976	     -1.79784593	     -0.04443943	     -0.28892501	     37.42515241	     -4.94657513	    -17.03743990	    -10.84551838	     -2.82488303	     -0.11611393	     13.38812709	     -5.18795636	     -2.62590355	     -1.98081944	    -17.00899333	      9.33123431	     -1.56824751	     -2.49767497	      5.22834416	      3.30596051	    -10.38435651
      2.85500000	    -11.00575769	     -2.72919365	      8.19058356	     -1.78908840	     -0.04520141	     -0.28822449	     37.43230726	     -4.74048703	    -16.71448472	    -11.53215161	     -3.00082026	     -0.29316091	     13.70609075	     -5.36520840	     -3.02881587	     -2.32429765	    -17.53556364	      8.79114878	     -0.81605732	     -2.08017393	      5.42306127	      3.44734079	    -10.42976013
      2.86000000	    -10.96689316	     -2.88862461	      8.24848771	     -1.78030402	     -0.04586023	     -0.28749949	     37.33836866	     -4.50966867	    -16.31745154	    -12.12832746	     -3.58993990	     -0.76606067	     15.23081667	     -5.59060056	     -3.46095289	     -2.62960094	    -17.99974167	      7.72449852	     -0.33245053	      0.21108047	      5.56196122	      3.60113526	    -10.48937346
      2.86500000	    -11.04941138	     -3.05884781	      8.26949870	     -1.77146970	     -0.04659004	     -0.28668845	     37.40578033	     -4.26030717	    -15.95968977	    -12.81713429	     -4.12250500	     -1.19694911	     15.26465901	     -5.62484519	     -3.89179391	     -2.96938632	    -18.64486288	      7.14034476	      0.44593126	      0.27179559	      5.83480138	      3.74826770	    -10.50561210
      2.87000000	    -11.09427852	     -3.26484338	      8.20229536	     -1.76256240	     -0.04721662	     -0.28574606	     37.41644477	     -3.89419283	    -15.42744901	    -13.43307569	     -4.97733410	     -1.90762780	     15.31506104	     -5.70331146	     -4.36743098	     -3.36959772	    -19.28341619	      6.43630871	      1.18317529	      0.48879338	      6.07833389	      3.94954324	    -10.47334357
      2.87500000	    -11.13390238	     -3.48008482	      8.11292481	     -1.75366756	     -0.04777642	     -0.28467645	     37.41654544	     -3.49074936	    -14.84702145	    -14.00961369	     -6.01449064	     -2.80054866	     15.43992418	     -5.73000912	     -4.87799364	     -3.88214087	    -20.00040921	      5.61168081	      1.96785424	      0.97169739	      6.30812091	      4.15192163	    -10.38673220
      2.88000000	    -11.12706312	     -3.79132468	      8.00911192	     -1.74466918	     -0.04816150	     -0.28364561	     37.34537177	     -2.98804382	    -14.42269815	    -14.48166356	     -7.45547110	     -3.95065640	     16.50459249	     -5.81146349	     -5.49858248	     -4.34828404	    -20.59789683	      4.14608556	      2.44003141	      3.76835596	      6.51875424	      4.47248362	    -10.28101264
      2.88500000	    -11.28447633	     -4.06074277	      7.89297815	     -1.73578953	     -0.04862716	     -0.28254436	     37.49468125	     -2.54004926	    -13.86774913	    -15.06231124	     -8.73807888	     -5.11587529	     16.25755895	     -5.61156753	     -6.04773342	     -4.74863448	    -21.45398991	      3.19882402	      3.14970005	      3.86155077	      6.88382752	      4.72296816	    -10.20866116
      2.89000000	    -11.38659479	     -4.37748999	      7.71687013	     -1.72688372	     -0.04894159	     -0.28137086	     37.58883510	     -1.99597819	    -13.28075207	    -15.63694483	    -10.06143627	     -6.42590931	     15.92994261	     -5.44421743	     -6.65847111	     -5.19239757	    -22.33827281	      2.09429716	      3.80932645	      4.13248322	      7.19248932	      5.03966521	    -10.06641062
      2.89500000	    -11.49114728	     -4.70907470	      7.51137170	     -1.71797989	     -0.04917728	     -0.28013966	     37.69943601	     -1.41785589	    -12.66261883	    -16.25326179	    -11.30446934	     -7.78832224	     15.50535142	     -5.22766329	     -7.29168335	     -5.64618975	    -23.27805789	      0.82346206	      4.42154790	      4.57441737	      7.50346281	      5.37692452	     -9.90263041
      2.90000000	    -11.49223044	     -5.11252691	      7.25393729	     -1.70899628	     -0.04922661	     -0.27883663	     37.70050898	     -0.72081084	    -12.07066781	    -16.92618089	    -12.19736060	     -8.96469204	     14.11568267	     -5.12803263	     -8.03332938	     -6.20823840	    -24.07921879	     -1.29384519	      4.70150056	      8.12554439	      7.71600061	      5.81226271	     -9.66864093
      2.90500000	    -11.67517885	     -5.40999580	      7.05084334	     -1.70014509	     -0.04941054	     -0.27760094	     37.91539670	     -0.19186231	    -11.45543807	    -17.65859993	    -13.06209302	    -10.23527360	     13.67309938	     -4.70199976	     -8.61463349	     -6.51687493	    -25.18677797	     -2.78500241	      5.16273992	      8.11784001	      8.10050690	      6.10498982	     -9.53269322
      2.91000000	    -11.78359971	     -5.77921148	      6.71085643	     -1.69113583	     -0.04953920	     -0.27616615	     38.04662428	      0.50832859	    -10.80476462	    -18.42700515	    -13.54750626	    -11.25306722	     12.69126108	     -4.36186482	     -9.31606718	     -7.08886703	    -26.28851598	     -4.56243824	      5.63086512	      9.04462787	      8.41903454	      6.50290385	     -9.23653777
      2.91500000	    -11.91453594	     -6.07524757	      6.46492423	     -1.68228183	     -0.04959742	     -0.27482878	     38.18319002	      1.08398418	    -10.22849108	    -19.20302534	    -13.83821854	    -12.25635626	     11.75141769	     -3.90690784	     -9.90843789	     -7.36269104	    -27.45966660	     -6.55617080	      5.82397428	      9.82039540	      8.73904347	      6.80287026	     -9.06437425
      2.92000000	    -11.92570485	     -6.34198197	      6.29046296	     -1.67359600	     -0.04946469	     -0.27358036	     38.17897631	      1.59905858	     -9.78231897	    -20.01982957	    -13.65843951	    -12.90827607	     10.05447681	     -3.51275502	    -10.47375233	     -7.50383399	    -28.62320644	     -8.95873539	      5.75387454	     11.56447412	      8.90409881	      7.07800450	     -8.96011998
      2.92500000	    -11.99681953	     -6.56850531	      6.05070752	     -1.66487254	     -0.04941181	     -0.27229276	     38.20114460	      2.10301878	     -9.34493137	    -20.74940822	    -13.57651008	    -13.63525992	      9.91322868	     -3.00167271	    -10.97024400	     -7.62702450	    -29.95425381	    -10.99367184	      5.76311828	     11.23574944	      9.12890616	      7.32186419	     -8.79378110
      2.93000000	    -12.07098297	     -6.79565751	      5.79703111	     -1.65623493	     -0.04935828	     -0.27097721	     38.19682620	      2.61661003	     -8.94007782	    -21.44244468	    -13.31166760	    -14.21284751	      9.78731431	     -2.42328291	    -11.46142894	     -7.70481149	    -31.35963930	    -13.07699267	      5.67016929	     10.92734536	      9.34136034	      7.56800615	     -8.62191642
      2.93500000	    -12.06247602	     -7.07050355	      5.56872859	     -1.64764440	     -0.04918936	     -0.26978663	     38.04886227	      3.15545524	     -8.66560285	    -22.05487419	    -12.85721843	    -14.57121486	      9.81707911	     -1.87287961	    -11.99188147	     -7.69916057	    -32.81966943	    -15.14582225	      5.43895635	     10.51270478	      9.46415947	      7.88474395	     -8.47598284
      2.94000000	    -12.16033274	     -7.24042022	      5.28003840	     -1.63925127	     -0.04908413	     -0.26842476	     38.00914299	      3.62951346	     -8.35481467	    -22.65689522	    -12.40641716	    -14.98505297	      9.78346592	     -1.16267293	    -12.36714408	     -7.60683961	    -34.32955019	    -17.24866923	      5.03385706	      9.99458230	      9.65150752	      8.07558712	     -8.25088637
      2.94500000	    -12.17463120	     -7.51159962	      5.01023171	     -1.63090809	     -0.04891479	     -0.26718210	     37.81147073	      4.19256611	     -8.09503022	    -23.14723090	    -11.80275864	    -15.23126494	      9.86820264	     -0.47429735	    -12.84480325	     -7.48211098	    -35.91993108	    -19.18192300	      4.51657940	      9.44646106	      9.75279728	      8.39072171	     -8.07721673
      2.95000000	    -12.42338486	     -7.60825521	      4.69301572	     -1.62279727	     -0.04893217	     -0.26596510	     37.87694845	      4.55618772	     -7.83321591	    -23.69639887	    -11.02667333	    -15.20807675	      9.93944081	      0.53796041	    -13.04503746	     -7.21326144	    -37.61790550	    -20.92082626	      3.84206371	      7.98709501	     10.05294372	      8.52263146	     -7.84999104
      2.95500000	    -12.51140623	     -7.77702703	      4.39868035	     -1.61482050	     -0.04871590	     -0.26488724	     37.70271048	      4.99188446	     -7.63520461	    -24.10599268	    -10.31091025	    -15.20159473	     10.14473686	      1.43769949	    -13.29949603	     -6.90439103	    -39.36996555	    -22.43696720	      3.01952093	      6.03120669	     10.16442476	      8.75569327	     -7.62048998
      2.96000000	    -12.48915821	     -8.04412915	      4.11804259	     -1.60694190	     -0.04830946	     -0.26382931	     37.34591661	      5.53804194	     -7.50653934	    -24.36265821	     -9.78457468	    -15.38302562	     10.29019772	      2.25991747	    -13.65385020	     -6.58267180	    -41.08637717	    -24.14818905	      1.98145119	      5.22806344	     10.14545537	      9.09928063	     -7.39237072
      2.96500000	    -12.71658320	     -8.19551583	      3.77091259	     -1.59919656	     -0.04822637	     -0.26283590	     37.26181962	      5.93843224	     -7.31597715	    -24.68093838	     -8.94827777	    -15.10386681	     10.78982801	      3.41821201	    -13.81528505	     -6.25387451	    -42.94399874	    -25.43247681	      0.86610865	      3.31113984	     10.36487738	      9.33229371	     -7.13874304
      2.97000000	    -12.75619029	     -8.45236226	      3.47791330	     -1.59154282	     -0.04779087	     -0.26195196	     36.89834915	      6.44450940	     -7.21818627	    -24.79658446	     -8.50849913	    -15.20639918	     11.49789133	      4.44798723	    -14.08293644	     -5.90545809	    -44.84406007	    -26.43992102	     -0.29683658	      0.33001139	     10.37754214	      9.68046427	     -6.92765049
      2.97500000	    -12.83013394	     -8.68499761	      3.13748148	     -1.58397586	     -0.04737627	     -0.26103778	     36.54774949	      6.94606946	     -7.06819059	    -24.89702370	     -7.89063543	    -15.10069967	     11.72046845	      5.50128080	    -14.29697012	     -5.59407906	    -46.61601328	    -27.97444382	     -1.85315928	     -0.31025708	     10.39978668	     10.01254525	     -6.64811549
